<svg height="153.57333332500002mm" viewBox="0 0 46.099999999999994 76.78666666250001" width="92.19999999999999mm" xmlns="http://www.w3.org/2000/svg">
<g id="not_set" scale="2">
<circle cx="11.35" cy="35.02" fill="none" r="2.82" stroke="rgb(132,0,0)" stroke-width="0.254"/>
<rect fill="none" height="5.08" stroke="rgb(132,0,0)" stroke-width="0.254" width="2.04" x="11.6" y="13.43"/>
<circle cx="34.21" cy="35.02" fill="none" r="2.82" stroke="rgb(132,0,0)" stroke-width="0.254"/>
<rect fill="none" height="5.08" stroke="rgb(132,0,0)" stroke-width="0.254" width="2.04" x="31.92" y="13.43"/>
<rect fill="none" height="5.08" stroke="rgb(132,0,0)" stroke-width="0.254" width="2.04" x="21.76" y="46.45"/>
<rect fill="none" height="5.08" stroke="rgb(132,0,0)" stroke-width="0.254" width="2.04" x="21.76" y="59.15"/>
<circle cx="11.35" cy="62.96" fill="none" r="2.82" stroke="rgb(132,0,0)" stroke-width="0.254"/>
<text dominant-baseline="middle" fill="rgb(0,100,100)" font-family="osifont" font-size="1.25pt" text-anchor="start" transform="translate(15.169999999999998,34.019999999999996) rotate(0)">
Q1
</text>
<text dominant-baseline="middle" fill="rgb(0,100,100)" font-family="osifont" font-size="1.25pt" text-anchor="start" transform="translate(15.169999999999998,36.019999999999996) rotate(0)">
BC547
</text>
<path d="M12.62,29.94 L12.62,32.48" stroke="rgb(132,0,0)" stroke-linecap="butt" stroke-width="0.35"/>
<text dominant-baseline="middle" fill="rgb(169,0,0)" font-family="osifont" font-size="0.75pt" text-anchor="middle" transform="translate(13.220000000000002,31.21) rotate(-90)">
1
</text>
<path d="M5,35.02 L10.08,35.02" stroke="rgb(132,0,0)" stroke-linecap="butt" stroke-width="0.35"/>
<text dominant-baseline="middle" fill="rgb(169,0,0)" font-family="osifont" font-size="0.75pt" text-anchor="middle" transform="translate(7.539999999999996,34.42) rotate(0)">
2
</text>
<path d="M12.62,40.1 L12.62,37.56" stroke="rgb(132,0,0)" stroke-linecap="butt" stroke-width="0.35"/>
<text dominant-baseline="middle" fill="rgb(169,0,0)" font-family="osifont" font-size="0.75pt" text-anchor="middle" transform="translate(13.220000000000002,38.83) rotate(-90)">
3
</text>
<path d="M12.62,29.94 L12.62,24.86" stroke="rgb(0,150,0)" stroke-linecap="square" stroke-width="0.25"/>
<path d="M12.62,24.86 L12.62,19.78" stroke="rgb(0,150,0)" stroke-linecap="square" stroke-width="0.25"/>
<text dominant-baseline="middle" fill="rgb(0,100,100)" font-family="osifont" font-size="1.25pt" text-anchor="start" transform="translate(14.639999999999997,14.97) rotate(0)">
R1
</text>
<text dominant-baseline="middle" fill="rgb(0,100,100)" font-family="osifont" font-size="1.25pt" text-anchor="start" transform="translate(14.639999999999997,16.97) rotate(0)">
15k
</text>
<path d="M12.62,19.78 L12.62,18.51" stroke="rgb(132,0,0)" stroke-linecap="butt" stroke-width="0.35"/>
<path d="M12.62,12.16 L12.62,13.43" stroke="rgb(132,0,0)" stroke-linecap="butt" stroke-width="0.35"/>
<path d="M12.62,12.16 L12.62,7.08" stroke="rgb(0,150,0)" stroke-linecap="square" stroke-width="0.25"/>
<text dominant-baseline="middle" fill="rgb(0,100,100)" font-family="osifont" font-size="1.25pt" text-anchor="middle" transform="translate(12.620000000000001,2.540000000000001) rotate(0)">
+15V
</text>
<path d="M12.62,7.08 L12.62,7.08" stroke="rgb(132,0,0)" stroke-linecap="butt" stroke-width="0.35"/>
<path d="M12.62,40.1 L12.62,45.18" stroke="rgb(0,150,0)" stroke-linecap="square" stroke-width="0.25"/>
<path d="M12.62,45.18 L22.78,45.18" stroke="rgb(0,150,0)" stroke-linecap="square" stroke-width="0.25"/>
<path d="M22.78,45.18 L32.94,45.18" stroke="rgb(0,150,0)" stroke-linecap="square" stroke-width="0.25"/>
<path d="M32.94,45.18 L32.94,40.1" stroke="rgb(0,150,0)" stroke-linecap="square" stroke-width="0.25"/>
<text dominant-baseline="middle" fill="rgb(0,100,100)" font-family="osifont" font-size="1.25pt" text-anchor="end" transform="translate(30.389999999999997,34.019999999999996) rotate(0)">
Q2
</text>
<text dominant-baseline="middle" fill="rgb(0,100,100)" font-family="osifont" font-size="1.25pt" text-anchor="end" transform="translate(30.389999999999997,36.019999999999996) rotate(0)">
BC547
</text>
<path d="M32.94,29.94 L32.94,32.48" stroke="rgb(132,0,0)" stroke-linecap="butt" stroke-width="0.35"/>
<text dominant-baseline="middle" fill="rgb(169,0,0)" font-family="osifont" font-size="0.75pt" text-anchor="middle" transform="translate(33.540000000000006,31.21) rotate(-90)">
1
</text>
<path d="M40.56,35.02 L35.48,35.02" stroke="rgb(132,0,0)" stroke-linecap="butt" stroke-width="0.35"/>
<text dominant-baseline="middle" fill="rgb(169,0,0)" font-family="osifont" font-size="0.75pt" text-anchor="middle" transform="translate(38.019999999999996,34.42) rotate(0)">
2
</text>
<path d="M32.94,40.1 L32.94,37.56" stroke="rgb(132,0,0)" stroke-linecap="butt" stroke-width="0.35"/>
<text dominant-baseline="middle" fill="rgb(169,0,0)" font-family="osifont" font-size="0.75pt" text-anchor="middle" transform="translate(33.540000000000006,38.83) rotate(-90)">
3
</text>
<path d="M32.94,29.94 L32.94,24.86" stroke="rgb(0,150,0)" stroke-linecap="square" stroke-width="0.25"/>
<path d="M32.94,24.86 L32.94,19.78" stroke="rgb(0,150,0)" stroke-linecap="square" stroke-width="0.25"/>
<text dominant-baseline="middle" fill="rgb(0,100,100)" font-family="osifont" font-size="1.25pt" text-anchor="start" transform="translate(34.959999999999994,14.97) rotate(0)">
R2
</text>
<text dominant-baseline="middle" fill="rgb(0,100,100)" font-family="osifont" font-size="1.25pt" text-anchor="start" transform="translate(34.959999999999994,16.97) rotate(0)">
15k
</text>
<path d="M32.94,19.78 L32.94,18.51" stroke="rgb(132,0,0)" stroke-linecap="butt" stroke-width="0.35"/>
<path d="M32.94,12.16 L32.94,13.43" stroke="rgb(132,0,0)" stroke-linecap="butt" stroke-width="0.35"/>
<path d="M32.94,12.16 L32.94,7.08" stroke="rgb(0,150,0)" stroke-linecap="square" stroke-width="0.25"/>
<text dominant-baseline="middle" fill="rgb(0,100,100)" font-family="osifont" font-size="1.25pt" text-anchor="middle" transform="translate(32.94,2.540000000000001) rotate(0)">
+15V
</text>
<path d="M32.94,7.08 L32.94,7.08" stroke="rgb(132,0,0)" stroke-linecap="butt" stroke-width="0.35"/>
<text dominant-baseline="middle" fill="rgb(0,100,100)" font-family="osifont" font-size="1.25pt" text-anchor="middle" transform="translate(40.56,39.56) rotate(0)">
GND
</text>
<path d="M40.56,35.02 L40.56,35.02" stroke="rgb(132,0,0)" stroke-linecap="butt" stroke-width="0.35"/>
<text dominant-baseline="middle" fill="rgb(0,100,100)" font-family="osifont" font-size="1.25pt" text-anchor="start" transform="translate(24.8,47.99000000000001) rotate(0)">
R3
</text>
<text dominant-baseline="middle" fill="rgb(0,100,100)" font-family="osifont" font-size="1.25pt" text-anchor="start" transform="translate(24.8,49.99000000000001) rotate(0)">
33k
</text>
<path d="M22.78,45.18 L22.78,46.45" stroke="rgb(132,0,0)" stroke-linecap="butt" stroke-width="0.35"/>
<path d="M22.78,52.8 L22.78,51.53" stroke="rgb(132,0,0)" stroke-linecap="butt" stroke-width="0.35"/>
<path d="M22.78,52.8 L22.78,55.34" stroke="rgb(0,150,0)" stroke-linecap="square" stroke-width="0.25"/>
<path d="M22.78,55.34 L22.78,57.88" stroke="rgb(0,150,0)" stroke-linecap="square" stroke-width="0.25"/>
<text dominant-baseline="middle" fill="rgb(0,100,100)" font-family="osifont" font-size="1.25pt" text-anchor="start" transform="translate(24.8,60.69) rotate(0)">
R4
</text>
<text dominant-baseline="middle" fill="rgb(0,100,100)" font-family="osifont" font-size="1.25pt" text-anchor="start" transform="translate(24.8,62.69) rotate(0)">
15k
</text>
<path d="M22.78,57.88 L22.78,59.15" stroke="rgb(132,0,0)" stroke-linecap="butt" stroke-width="0.35"/>
<path d="M22.78,65.5 L22.78,64.23" stroke="rgb(132,0,0)" stroke-linecap="butt" stroke-width="0.35"/>
<text dominant-baseline="middle" fill="rgb(0,100,100)" font-family="osifont" font-size="1.25pt" text-anchor="middle" transform="translate(22.779999999999998,70.04) rotate(0)">
-15V
</text>
<path d="M22.78,65.5 L22.78,65.5" stroke="rgb(132,0,0)" stroke-linecap="butt" stroke-width="0.35"/>
<path d="M22.78,55.34 L12.62,55.34" stroke="rgb(0,150,0)" stroke-linecap="square" stroke-width="0.25"/>
<path d="M12.62,55.34 L12.62,57.88" stroke="rgb(0,150,0)" stroke-linecap="square" stroke-width="0.25"/>
<text dominant-baseline="middle" fill="rgb(0,100,100)" font-family="osifont" font-size="1.25pt" text-anchor="start" transform="translate(15.169999999999998,61.96000000000001) rotate(0)">
Q3
</text>
<text dominant-baseline="middle" fill="rgb(0,100,100)" font-family="osifont" font-size="1.25pt" text-anchor="start" transform="translate(15.169999999999998,63.96000000000001) rotate(0)">
BC547
</text>
<path d="M12.62,68.04 L12.62,65.5" stroke="rgb(132,0,0)" stroke-linecap="butt" stroke-width="0.35"/>
<text dominant-baseline="middle" fill="rgb(169,0,0)" font-family="osifont" font-size="0.75pt" text-anchor="middle" transform="translate(13.220000000000002,66.77) rotate(-90)">
1
</text>
<path d="M5,62.96 L10.08,62.96" stroke="rgb(132,0,0)" stroke-linecap="butt" stroke-width="0.35"/>
<text dominant-baseline="middle" fill="rgb(169,0,0)" font-family="osifont" font-size="0.75pt" text-anchor="middle" transform="translate(7.539999999999996,62.36) rotate(0)">
2
</text>
<path d="M12.62,57.88 L12.62,60.42" stroke="rgb(132,0,0)" stroke-linecap="butt" stroke-width="0.35"/>
<text dominant-baseline="middle" fill="rgb(169,0,0)" font-family="osifont" font-size="0.75pt" text-anchor="middle" transform="translate(13.220000000000002,59.150000000000006) rotate(-90)">
3
</text>
<text dominant-baseline="middle" fill="rgb(0,100,100)" font-family="osifont" font-size="1.25pt" text-anchor="middle" transform="translate(12.620000000000001,72.58) rotate(0)">
GND
</text>
<path d="M12.62,68.04 L12.62,68.04" stroke="rgb(132,0,0)" stroke-linecap="butt" stroke-width="0.35"/>
<path d="M5,62.96 L7.54,62.96" stroke="rgb(0,150,0)" stroke-linecap="square" stroke-width="0.25"/>
<path d="M12.62,24.86 L7.54,24.86" stroke="rgb(0,150,0)" stroke-linecap="square" stroke-width="0.25"/>
<path d="M32.94,24.86 L38.02,24.86" stroke="rgb(0,150,0)" stroke-linecap="square" stroke-width="0.25"/>
<text dominant-baseline="middle" fill="rgb(132,0,132)" font-family="osifont" font-size="1.25pt" text-anchor="end" transform="translate(3.9999999999999964,35.22) rotate(0)">
X
</text>
<text dominant-baseline="middle" fill="rgb(132,0,132)" font-family="osifont" font-size="1.25pt" text-anchor="end" transform="translate(6.539999999999999,63.16000000000001) rotate(0)">
Y
</text>
<text dominant-baseline="middle" fill="rgb(132,0,132)" font-family="osifont" font-size="1.25pt" text-anchor="end" transform="translate(6.539999999999999,25.060000000000002) rotate(0)">
OUTa
</text>
<text dominant-baseline="middle" fill="rgb(132,0,132)" font-family="osifont" font-size="1.25pt" text-anchor="start" transform="translate(39.019999999999996,25.060000000000002) rotate(0)">
OUTb
</text>
<path d="M10.08,35.02 L10.72,35.02" fill="none" stroke="rgb(132,0,0)" stroke-width="0.3"/>
<path d="M10.72,34.38 L12.62,32.48" fill="none" stroke="rgb(132,0,0)" stroke-width="0.3"/>
<path d="M10.72,35.66 L12.62,37.56 L12.62,37.56" fill="none" stroke="rgb(132,0,0)" stroke-width="0.3"/>
<path d="M10.72,33.11 L10.72,36.92 L10.72,36.92" fill="none" stroke="rgb(132,0,0)" stroke-width="0.3"/>
<path d="M11.35,36.8 L11.86,36.29 L12.37,37.31 L11.35,36.8 L11.35,36.8" fill="rgb(132,0,0)" stroke="rgb(132,0,0)" stroke-width="0.3"/>
<path d="M11.86,5.81 L12.62,4.54" fill="none" stroke="rgb(132,0,0)" stroke-width="0.3"/>
<path d="M12.62,7.08 L12.62,4.54" fill="none" stroke="rgb(132,0,0)" stroke-width="0.3"/>
<path d="M12.62,4.54 L13.38,5.81" fill="none" stroke="rgb(132,0,0)" stroke-width="0.3"/>
<path d="M35.48,35.02 L34.85,35.02" fill="none" stroke="rgb(132,0,0)" stroke-width="0.3"/>
<path d="M34.85,34.38 L32.94,32.48" fill="none" stroke="rgb(132,0,0)" stroke-width="0.3"/>
<path d="M34.85,35.66 L32.94,37.56 L32.94,37.56" fill="none" stroke="rgb(132,0,0)" stroke-width="0.3"/>
<path d="M34.85,33.11 L34.85,36.92 L34.85,36.92" fill="none" stroke="rgb(132,0,0)" stroke-width="0.3"/>
<path d="M34.21,36.8 L33.7,36.29 L33.19,37.31 L34.21,36.8 L34.21,36.8" fill="rgb(132,0,0)" stroke="rgb(132,0,0)" stroke-width="0.3"/>
<path d="M32.18,5.81 L32.94,4.54" fill="none" stroke="rgb(132,0,0)" stroke-width="0.3"/>
<path d="M32.94,7.08 L32.94,4.54" fill="none" stroke="rgb(132,0,0)" stroke-width="0.3"/>
<path d="M32.94,4.54 L33.7,5.81" fill="none" stroke="rgb(132,0,0)" stroke-width="0.3"/>
<path d="M40.56,35.02 L40.56,36.29 L41.83,36.29 L40.56,37.56 L39.29,36.29 L40.56,36.29" fill="none" stroke="rgb(132,0,0)" stroke-width="0.3"/>
<path d="M22.78,65.5 L22.78,66.77 L22.02,66.77 L22.78,68.04 L23.54,66.77 L22.78,66.77" fill="rgb(132,0,0)" stroke="rgb(132,0,0)" stroke-width="0.3"/>
<path d="M10.08,62.96 L10.72,62.96" fill="none" stroke="rgb(132,0,0)" stroke-width="0.3"/>
<path d="M10.72,63.6 L12.62,65.5" fill="none" stroke="rgb(132,0,0)" stroke-width="0.3"/>
<path d="M10.72,62.33 L12.62,60.42 L12.62,60.42" fill="none" stroke="rgb(132,0,0)" stroke-width="0.3"/>
<path d="M10.72,64.87 L10.72,61.06 L10.72,61.06" fill="none" stroke="rgb(132,0,0)" stroke-width="0.3"/>
<path d="M11.35,61.18 L11.86,61.69 L12.37,60.67 L11.35,61.18 L11.35,61.18" fill="rgb(132,0,0)" stroke="rgb(132,0,0)" stroke-width="0.3"/>
<path d="M12.62,68.04 L12.62,69.31 L13.89,69.31 L12.62,70.58 L11.35,69.31 L12.62,69.31" fill="none" stroke="rgb(132,0,0)" stroke-width="0.3"/>
<circle cx="12.62" cy="24.86" fill="rgb(132,0,0)" r="0.4" stroke="rgb(132,0,0)" stroke-width="0.25"/>
<circle cx="22.78" cy="45.18" fill="rgb(132,0,0)" r="0.4" stroke="rgb(132,0,0)" stroke-width="0.25"/>
<circle cx="32.94" cy="24.86" fill="rgb(132,0,0)" r="0.4" stroke="rgb(132,0,0)" stroke-width="0.25"/>
<circle cx="22.78" cy="55.34" fill="rgb(132,0,0)" r="0.4" stroke="rgb(132,0,0)" stroke-width="0.25"/>
</g>
</svg>