<?xml version="1.0" standalone="no"?>
 <!DOCTYPE svg PUBLIC "-//W3C//DTD SVG 1.1//EN" 
 "http://www.w3.org/Graphics/SVG/1.1/DTD/svg11.dtd"> 
<svg
  xmlns:svg="http://www.w3.org/2000/svg"
  xmlns="http://www.w3.org/2000/svg"
  xmlns:xlink="http://www.w3.org/1999/xlink"
  version="1.1"
  width="297.0022mm" height="210.0072mm" viewBox="0.0000 0.0000 297.0022 210.0072">
<title>SVG Image created as panel-F_Mask.svg date 2023/12/04 12:43:02 </title>
  <desc>Image generated by PCBNEW </desc>
<g style="fill:#000000; fill-opacity:1.0000;stroke:#000000; stroke-opacity:1.0000;
stroke-linecap:round; stroke-linejoin:round;"
 transform="translate(0 0) scale(1 1)">
</g>
<g style="fill:#000000; fill-opacity:0.0; 
stroke:#000000; stroke-width:0.0000; stroke-opacity:1; 
stroke-linecap:round; stroke-linejoin:round;">
</g>
<g style="fill:#D864FF; fill-opacity:0.0; 
stroke:#D864FF; stroke-width:0.0000; stroke-opacity:1; 
stroke-linecap:round; stroke-linejoin:round;">
</g>
<g style="fill:#D864FF; fill-opacity:0.0; 
stroke:#D864FF; stroke-width:0.3500; stroke-opacity:1; 
stroke-linecap:round; stroke-linejoin:round;">
<text x="23.5700" y="4.5750"
textLength="8.5929" font-size="4.0000" lengthAdjust="spacingAndGlyphs"
text-anchor="middle" opacity="0">cp3</text>
<g class="stroked-text"><desc>cp3</desc>
<path d="M21.4986 4.3018
L21.2129 4.4447
" />
<path d="M21.2129 4.4447
L20.6414 4.4447
" />
<path d="M20.6414 4.4447
L20.3557 4.3018
" />
<path d="M20.3557 4.3018
L20.2129 4.1589
" />
<path d="M20.2129 4.1589
L20.0700 3.8732
" />
<path d="M20.0700 3.8732
L20.0700 3.0161
" />
<path d="M20.0700 3.0161
L20.2129 2.7304
" />
<path d="M20.2129 2.7304
L20.3557 2.5875
" />
<path d="M20.3557 2.5875
L20.6414 2.4447
" />
<path d="M20.6414 2.4447
L21.2129 2.4447
" />
<path d="M21.2129 2.4447
L21.4986 2.5875
" />
<path d="M22.7843 2.4447
L22.7843 5.4447
" />
<path d="M22.7843 2.5875
L23.0700 2.4447
" />
<path d="M23.0700 2.4447
L23.6414 2.4447
" />
<path d="M23.6414 2.4447
L23.9271 2.5875
" />
<path d="M23.9271 2.5875
L24.0700 2.7304
" />
<path d="M24.0700 2.7304
L24.2129 3.0161
" />
<path d="M24.2129 3.0161
L24.2129 3.8732
" />
<path d="M24.2129 3.8732
L24.0700 4.1589
" />
<path d="M24.0700 4.1589
L23.9271 4.3018
" />
<path d="M23.9271 4.3018
L23.6414 4.4447
" />
<path d="M23.6414 4.4447
L23.0700 4.4447
" />
<path d="M23.0700 4.4447
L22.7843 4.3018
" />
<path d="M25.2129 1.4447
L27.0700 1.4447
" />
<path d="M27.0700 1.4447
L26.0700 2.5875
" />
<path d="M26.0700 2.5875
L26.4986 2.5875
" />
<path d="M26.4986 2.5875
L26.7843 2.7304
" />
<path d="M26.7843 2.7304
L26.9271 2.8732
" />
<path d="M26.9271 2.8732
L27.0700 3.1589
" />
<path d="M27.0700 3.1589
L27.0700 3.8732
" />
<path d="M27.0700 3.8732
L26.9271 4.1589
" />
<path d="M26.9271 4.1589
L26.7843 4.3018
" />
<path d="M26.7843 4.3018
L26.4986 4.4447
" />
<path d="M26.4986 4.4447
L25.6414 4.4447
" />
<path d="M25.6414 4.4447
L25.3557 4.3018
" />
<path d="M25.3557 4.3018
L25.2129 4.1589
" />
</g></g>
<g style="fill:#D864FF; fill-opacity:0.0; 
stroke:#D864FF; stroke-width:0.2500; stroke-opacity:1; 
stroke-linecap:round; stroke-linejoin:round;">
<text x="9.2190" y="96.5950"
textLength="2.4033" font-size="1.8667" lengthAdjust="spacingAndGlyphs"
text-anchor="start" opacity="0">in</text>
<g class="stroked-text"><desc>in</desc>
<path d="M9.7168 96.3372
L9.7168 95.0039
" />
<path d="M9.7168 94.3372
L9.6501 94.4325
" />
<path d="M9.6501 94.4325
L9.7168 94.5277
" />
<path d="M9.7168 94.5277
L9.7835 94.4325
" />
<path d="M9.7835 94.4325
L9.7168 94.3372
" />
<path d="M9.7168 94.3372
L9.7168 94.5277
" />
<path d="M10.3835 95.0039
L10.3835 96.3372
" />
<path d="M10.3835 95.1944
L10.4501 95.0991
" />
<path d="M10.4501 95.0991
L10.5835 95.0039
" />
<path d="M10.5835 95.0039
L10.7835 95.0039
" />
<path d="M10.7835 95.0039
L10.9168 95.0991
" />
<path d="M10.9168 95.0991
L10.9835 95.2896
" />
<path d="M10.9835 95.2896
L10.9835 96.3372
" />
</g><text x="9.2190" y="55.9550"
textLength="2.4033" font-size="1.8667" lengthAdjust="spacingAndGlyphs"
text-anchor="start" opacity="0">in</text>
<g class="stroked-text"><desc>in</desc>
<path d="M9.7168 55.6972
L9.7168 54.3639
" />
<path d="M9.7168 53.6972
L9.6501 53.7925
" />
<path d="M9.6501 53.7925
L9.7168 53.8877
" />
<path d="M9.7168 53.8877
L9.7835 53.7925
" />
<path d="M9.7835 53.7925
L9.7168 53.6972
" />
<path d="M9.7168 53.6972
L9.7168 53.8877
" />
<path d="M10.3835 54.3639
L10.3835 55.6972
" />
<path d="M10.3835 54.5544
L10.4501 54.4591
" />
<path d="M10.4501 54.4591
L10.5835 54.3639
" />
<path d="M10.5835 54.3639
L10.7835 54.3639
" />
<path d="M10.7835 54.3639
L10.9168 54.4591
" />
<path d="M10.9168 54.4591
L10.9835 54.6496
" />
<path d="M10.9835 54.6496
L10.9835 55.6972
" />
</g><text x="9.2190" y="76.2750"
textLength="2.4033" font-size="1.8667" lengthAdjust="spacingAndGlyphs"
text-anchor="start" opacity="0">in</text>
<g class="stroked-text"><desc>in</desc>
<path d="M9.7168 76.0172
L9.7168 74.6839
" />
<path d="M9.7168 74.0172
L9.6501 74.1125
" />
<path d="M9.6501 74.1125
L9.7168 74.2077
" />
<path d="M9.7168 74.2077
L9.7835 74.1125
" />
<path d="M9.7835 74.1125
L9.7168 74.0172
" />
<path d="M9.7168 74.0172
L9.7168 74.2077
" />
<path d="M10.3835 74.6839
L10.3835 76.0172
" />
<path d="M10.3835 74.8744
L10.4501 74.7791
" />
<path d="M10.4501 74.7791
L10.5835 74.6839
" />
<path d="M10.5835 74.6839
L10.7835 74.6839
" />
<path d="M10.7835 74.6839
L10.9168 74.7791
" />
<path d="M10.9168 74.7791
L10.9835 74.9696
" />
<path d="M10.9835 74.9696
L10.9835 76.0172
" />
</g><text x="9.2190" y="36.2700"
textLength="2.4033" font-size="1.8667" lengthAdjust="spacingAndGlyphs"
text-anchor="start" opacity="0">in</text>
<g class="stroked-text"><desc>in</desc>
<path d="M9.7168 36.0122
L9.7168 34.6789
" />
<path d="M9.7168 34.0122
L9.6501 34.1075
" />
<path d="M9.6501 34.1075
L9.7168 34.2027
" />
<path d="M9.7168 34.2027
L9.7835 34.1075
" />
<path d="M9.7835 34.1075
L9.7168 34.0122
" />
<path d="M9.7168 34.0122
L9.7168 34.2027
" />
<path d="M10.3835 34.6789
L10.3835 36.0122
" />
<path d="M10.3835 34.8694
L10.4501 34.7741
" />
<path d="M10.4501 34.7741
L10.5835 34.6789
" />
<path d="M10.5835 34.6789
L10.7835 34.6789
" />
<path d="M10.7835 34.6789
L10.9168 34.7741
" />
<path d="M10.9168 34.7741
L10.9835 34.9646
" />
<path d="M10.9835 34.9646
L10.9835 36.0122
" />
</g><text x="8.5840" y="116.9150"
textLength="3.8033" font-size="1.8667" lengthAdjust="spacingAndGlyphs"
text-anchor="start" opacity="0">out</text>
<g class="stroked-text"><desc>out</desc>
<path d="M9.2818 116.6572
L9.1485 116.5620
" />
<path d="M9.1485 116.5620
L9.0818 116.4668
" />
<path d="M9.0818 116.4668
L9.0151 116.2763
" />
<path d="M9.0151 116.2763
L9.0151 115.7049
" />
<path d="M9.0151 115.7049
L9.0818 115.5144
" />
<path d="M9.0818 115.5144
L9.1485 115.4191
" />
<path d="M9.1485 115.4191
L9.2818 115.3239
" />
<path d="M9.2818 115.3239
L9.4818 115.3239
" />
<path d="M9.4818 115.3239
L9.6151 115.4191
" />
<path d="M9.6151 115.4191
L9.6818 115.5144
" />
<path d="M9.6818 115.5144
L9.7485 115.7049
" />
<path d="M9.7485 115.7049
L9.7485 116.2763
" />
<path d="M9.7485 116.2763
L9.6818 116.4668
" />
<path d="M9.6818 116.4668
L9.6151 116.5620
" />
<path d="M9.6151 116.5620
L9.4818 116.6572
" />
<path d="M9.4818 116.6572
L9.2818 116.6572
" />
<path d="M10.9485 115.3239
L10.9485 116.6572
" />
<path d="M10.3485 115.3239
L10.3485 116.3715
" />
<path d="M10.3485 116.3715
L10.4151 116.5620
" />
<path d="M10.4151 116.5620
L10.5485 116.6572
" />
<path d="M10.5485 116.6572
L10.7485 116.6572
" />
<path d="M10.7485 116.6572
L10.8818 116.5620
" />
<path d="M10.8818 116.5620
L10.9485 116.4668
" />
<path d="M11.4151 115.3239
L11.9485 115.3239
" />
<path d="M11.6151 114.6572
L11.6151 116.3715
" />
<path d="M11.6151 116.3715
L11.6818 116.5620
" />
<path d="M11.6818 116.5620
L11.8151 116.6572
" />
<path d="M11.8151 116.6572
L11.9485 116.6572
" />
</g><text x="28.6500" y="116.9150"
textLength="3.8033" font-size="1.8667" lengthAdjust="spacingAndGlyphs"
text-anchor="start" opacity="0">out</text>
<g class="stroked-text"><desc>out</desc>
<path d="M29.3478 116.6572
L29.2145 116.5620
" />
<path d="M29.2145 116.5620
L29.1478 116.4668
" />
<path d="M29.1478 116.4668
L29.0811 116.2763
" />
<path d="M29.0811 116.2763
L29.0811 115.7049
" />
<path d="M29.0811 115.7049
L29.1478 115.5144
" />
<path d="M29.1478 115.5144
L29.2145 115.4191
" />
<path d="M29.2145 115.4191
L29.3478 115.3239
" />
<path d="M29.3478 115.3239
L29.5478 115.3239
" />
<path d="M29.5478 115.3239
L29.6811 115.4191
" />
<path d="M29.6811 115.4191
L29.7478 115.5144
" />
<path d="M29.7478 115.5144
L29.8145 115.7049
" />
<path d="M29.8145 115.7049
L29.8145 116.2763
" />
<path d="M29.8145 116.2763
L29.7478 116.4668
" />
<path d="M29.7478 116.4668
L29.6811 116.5620
" />
<path d="M29.6811 116.5620
L29.5478 116.6572
" />
<path d="M29.5478 116.6572
L29.3478 116.6572
" />
<path d="M31.0145 115.3239
L31.0145 116.6572
" />
<path d="M30.4145 115.3239
L30.4145 116.3715
" />
<path d="M30.4145 116.3715
L30.4811 116.5620
" />
<path d="M30.4811 116.5620
L30.6145 116.6572
" />
<path d="M30.6145 116.6572
L30.8145 116.6572
" />
<path d="M30.8145 116.6572
L30.9478 116.5620
" />
<path d="M30.9478 116.5620
L31.0145 116.4668
" />
<path d="M31.4811 115.3239
L32.0145 115.3239
" />
<path d="M31.6811 114.6572
L31.6811 116.3715
" />
<path d="M31.6811 116.3715
L31.7478 116.5620
" />
<path d="M31.7478 116.5620
L31.8811 116.6572
" />
<path d="M31.8811 116.6572
L32.0145 116.6572
" />
</g><g >
</g>
<g style="fill:#D864FF; fill-opacity:0.4000; 
stroke:#D864FF; stroke-width:0.0000; stroke-opacity:1; 
stroke-linecap:round; stroke-linejoin:round;">
<circle cx="7.5750" cy="3.0750" r="1.8000" /> 
</g>
<g style="fill:#D864FF; fill-opacity:0.4000; 
stroke:#D864FF; stroke-width:0.0212; stroke-opacity:1; 
stroke-linecap:round; stroke-linejoin:round;">
</g>
<g style="fill:#D864FF; fill-opacity:0.4000; 
stroke:#D864FF; stroke-width:0.0000; stroke-opacity:1; 
stroke-linecap:round; stroke-linejoin:round;">
<circle cx="7.5750" cy="3.0750" r="2.5000" /> 
</g>
<g style="fill:#D864FF; fill-opacity:0.4000; 
stroke:#D864FF; stroke-width:0.0212; stroke-opacity:1; 
stroke-linecap:round; stroke-linejoin:round;">
</g>
<g >
</g>
<g style="fill:#D864FF; fill-opacity:0.4000; 
stroke:#D864FF; stroke-width:0.0212; stroke-opacity:1; 
stroke-linecap:round; stroke-linejoin:round;">
</g>
<g style="fill:#D864FF; fill-opacity:0.4000; 
stroke:#D864FF; stroke-width:0.0000; stroke-opacity:1; 
stroke-linecap:round; stroke-linejoin:round;">
<circle cx="7.5750" cy="125.5750" r="1.8000" /> 
</g>
<g style="fill:#D864FF; fill-opacity:0.4000; 
stroke:#D864FF; stroke-width:0.0212; stroke-opacity:1; 
stroke-linecap:round; stroke-linejoin:round;">
</g>
<g style="fill:#D864FF; fill-opacity:0.4000; 
stroke:#D864FF; stroke-width:0.0000; stroke-opacity:1; 
stroke-linecap:round; stroke-linejoin:round;">
<circle cx="7.5750" cy="125.5750" r="2.5000" /> 
</g>
<g style="fill:#D864FF; fill-opacity:0.4000; 
stroke:#D864FF; stroke-width:0.0212; stroke-opacity:1; 
stroke-linecap:round; stroke-linejoin:round;">
</g>
<g >
</g>
<g style="fill:#D864FF; fill-opacity:0.4000; 
stroke:#D864FF; stroke-width:0.0212; stroke-opacity:1; 
stroke-linecap:round; stroke-linejoin:round;">
</g>
<g style="fill:#D864FF; fill-opacity:0.4000; 
stroke:#D864FF; stroke-width:0.0000; stroke-opacity:1; 
stroke-linecap:round; stroke-linejoin:round;">
<circle cx="10.2350" cy="86.4350" r="3.2000" /> 
</g>
<g style="fill:#D864FF; fill-opacity:0.4000; 
stroke:#D864FF; stroke-width:0.0212; stroke-opacity:1; 
stroke-linecap:round; stroke-linejoin:round;">
</g>
<g >
</g>
<g style="fill:#D864FF; fill-opacity:0.4000; 
stroke:#D864FF; stroke-width:0.0212; stroke-opacity:1; 
stroke-linecap:round; stroke-linejoin:round;">
</g>
<g style="fill:#D864FF; fill-opacity:0.4000; 
stroke:#D864FF; stroke-width:0.0000; stroke-opacity:1; 
stroke-linecap:round; stroke-linejoin:round;">
<circle cx="30.5550" cy="25.4750" r="3.7000" /> 
</g>
<g style="fill:#D864FF; fill-opacity:0.4000; 
stroke:#D864FF; stroke-width:0.0212; stroke-opacity:1; 
stroke-linecap:round; stroke-linejoin:round;">
</g>
<g >
</g>
<g style="fill:#D864FF; fill-opacity:0.4000; 
stroke:#D864FF; stroke-width:0.0212; stroke-opacity:1; 
stroke-linecap:round; stroke-linejoin:round;">
</g>
<g style="fill:#D864FF; fill-opacity:0.4000; 
stroke:#D864FF; stroke-width:0.0000; stroke-opacity:1; 
stroke-linecap:round; stroke-linejoin:round;">
<circle cx="10.2350" cy="106.7550" r="3.2000" /> 
</g>
<g style="fill:#D864FF; fill-opacity:0.4000; 
stroke:#D864FF; stroke-width:0.0212; stroke-opacity:1; 
stroke-linecap:round; stroke-linejoin:round;">
</g>
<g >
</g>
<g style="fill:#D864FF; fill-opacity:0.4000; 
stroke:#D864FF; stroke-width:0.0212; stroke-opacity:1; 
stroke-linecap:round; stroke-linejoin:round;">
</g>
<g style="fill:#D864FF; fill-opacity:0.4000; 
stroke:#D864FF; stroke-width:0.0000; stroke-opacity:1; 
stroke-linecap:round; stroke-linejoin:round;">
<circle cx="30.5550" cy="86.4350" r="3.7000" /> 
</g>
<g style="fill:#D864FF; fill-opacity:0.4000; 
stroke:#D864FF; stroke-width:0.0212; stroke-opacity:1; 
stroke-linecap:round; stroke-linejoin:round;">
</g>
<g >
</g>
<g style="fill:#D864FF; fill-opacity:0.4000; 
stroke:#D864FF; stroke-width:0.0212; stroke-opacity:1; 
stroke-linecap:round; stroke-linejoin:round;">
</g>
<g style="fill:#D864FF; fill-opacity:0.4000; 
stroke:#D864FF; stroke-width:0.0000; stroke-opacity:1; 
stroke-linecap:round; stroke-linejoin:round;">
<circle cx="30.5550" cy="66.1150" r="3.7000" /> 
</g>
<g style="fill:#D864FF; fill-opacity:0.4000; 
stroke:#D864FF; stroke-width:0.0212; stroke-opacity:1; 
stroke-linecap:round; stroke-linejoin:round;">
</g>
<g >
</g>
<g style="fill:#D864FF; fill-opacity:0.4000; 
stroke:#D864FF; stroke-width:0.0212; stroke-opacity:1; 
stroke-linecap:round; stroke-linejoin:round;">
</g>
<g style="fill:#D864FF; fill-opacity:0.4000; 
stroke:#D864FF; stroke-width:0.0000; stroke-opacity:1; 
stroke-linecap:round; stroke-linejoin:round;">
<circle cx="30.5550" cy="45.7950" r="3.7000" /> 
</g>
<g style="fill:#D864FF; fill-opacity:0.4000; 
stroke:#D864FF; stroke-width:0.0212; stroke-opacity:1; 
stroke-linecap:round; stroke-linejoin:round;">
</g>
<g >
</g>
<g style="fill:#D864FF; fill-opacity:0.4000; 
stroke:#D864FF; stroke-width:0.0212; stroke-opacity:1; 
stroke-linecap:round; stroke-linejoin:round;">
</g>
<g style="fill:#D864FF; fill-opacity:0.4000; 
stroke:#D864FF; stroke-width:0.0000; stroke-opacity:1; 
stroke-linecap:round; stroke-linejoin:round;">
<circle cx="30.5550" cy="106.7550" r="3.2000" /> 
</g>
<g style="fill:#D864FF; fill-opacity:0.4000; 
stroke:#D864FF; stroke-width:0.0212; stroke-opacity:1; 
stroke-linecap:round; stroke-linejoin:round;">
</g>
<g >
</g>
<g style="fill:#D864FF; fill-opacity:0.4000; 
stroke:#D864FF; stroke-width:0.0212; stroke-opacity:1; 
stroke-linecap:round; stroke-linejoin:round;">
</g>
<g style="fill:#D864FF; fill-opacity:0.4000; 
stroke:#D864FF; stroke-width:0.0000; stroke-opacity:1; 
stroke-linecap:round; stroke-linejoin:round;">
<circle cx="10.2350" cy="26.0450" r="3.2000" /> 
</g>
<g style="fill:#D864FF; fill-opacity:0.4000; 
stroke:#D864FF; stroke-width:0.0212; stroke-opacity:1; 
stroke-linecap:round; stroke-linejoin:round;">
</g>
<g >
</g>
<g style="fill:#D864FF; fill-opacity:0.4000; 
stroke:#D864FF; stroke-width:0.0212; stroke-opacity:1; 
stroke-linecap:round; stroke-linejoin:round;">
</g>
<g style="fill:#D864FF; fill-opacity:0.4000; 
stroke:#D864FF; stroke-width:0.0000; stroke-opacity:1; 
stroke-linecap:round; stroke-linejoin:round;">
<circle cx="10.2350" cy="45.7950" r="3.2000" /> 
</g>
<g style="fill:#D864FF; fill-opacity:0.4000; 
stroke:#D864FF; stroke-width:0.0212; stroke-opacity:1; 
stroke-linecap:round; stroke-linejoin:round;">
</g>
<g >
</g>
<g style="fill:#D864FF; fill-opacity:0.4000; 
stroke:#D864FF; stroke-width:0.0212; stroke-opacity:1; 
stroke-linecap:round; stroke-linejoin:round;">
</g>
<g style="fill:#D864FF; fill-opacity:0.4000; 
stroke:#D864FF; stroke-width:0.0000; stroke-opacity:1; 
stroke-linecap:round; stroke-linejoin:round;">
<circle cx="10.2350" cy="66.1150" r="3.2000" /> 
</g>
<g style="fill:#D864FF; fill-opacity:0.4000; 
stroke:#D864FF; stroke-width:0.0212; stroke-opacity:1; 
stroke-linecap:round; stroke-linejoin:round;">
</g>
<g >
</g>
<g >
</g>
<g >
</g>
</g> 
</svg>
